<svg width="14" height="30" viewBox="0 0 14 30" fill="none" xmlns="http://www.w3.org/2000/svg">
<path d="M4.614 1.54582C5.84379 0.513408 7.40886 -0.033287 9.014 0.00883329C10.674 -0.00616671 12.334 0.00282841 13.994 0.00382841C14 1.7545 14 3.5058 13.994 5.2578C12.921 5.2578 11.848 5.2578 10.775 5.2578C10.4305 5.24499 10.0923 5.35261 9.81859 5.56212C9.54484 5.77162 9.35263 6.06994 9.275 6.40581C9.259 7.57781 9.269 8.7498 9.27 9.9218C10.844 9.9288 12.417 9.9218 13.991 9.9218C13.875 11.6218 13.665 13.3048 13.418 14.9858C12.028 14.9988 10.638 14.9858 9.248 14.9928C9.236 19.9928 9.254 24.9928 9.238 29.9928C7.174 30.0018 5.108 29.9928 3.044 29.9988C3.004 24.9988 3.044 19.9988 3.022 14.9988C2.015 14.9878 1.007 15.0058 0 14.9898C0 13.3088 0 11.6278 0 9.9478C1.006 9.9358 2.014 9.94784 3.02 9.94084C3.051 8.30684 2.989 6.67082 3.052 5.04082C3.11752 3.72153 3.67479 2.47463 4.614 1.54582Z" fill="#3D58A6"/>
</svg>
