<svg width="85" height="128" viewBox="0 0 85 128" fill="none" xmlns="http://www.w3.org/2000/svg">
<path d="M84.1111 82.516C83.7113 82.1773 83.1934 82.011 82.6711 82.0535C82.1489 82.0961 81.6649 82.344 81.3252 82.743L67.6321 98.814L58.8821 91.881C58.4735 91.5548 57.9522 91.4042 57.4326 91.4625C56.913 91.5207 56.4378 91.783 56.1116 92.1915C55.7854 92.6001 55.6349 93.1215 55.6931 93.6411C55.7513 94.1606 56.0136 94.6358 56.4221 94.962L66.6692 103.083C67.0714 103.401 67.5812 103.552 68.0918 103.502C68.6023 103.452 69.0736 103.207 69.407 102.817L84.3391 85.292C84.5072 85.0951 84.6348 84.867 84.7144 84.6206C84.7939 84.3743 84.8239 84.1146 84.8027 83.8566C84.7815 83.5986 84.7095 83.3473 84.5908 83.1172C84.4721 82.8871 84.3091 82.6828 84.1111 82.516ZM70.2432 115.702C69.9841 115.702 69.7274 115.752 69.4878 115.851C69.2482 115.949 69.0303 116.094 68.8467 116.277C68.6631 116.46 68.5174 116.677 68.4177 116.916C68.3181 117.155 68.2666 117.412 68.2661 117.671C68.2595 119.239 67.6315 120.741 66.5198 121.847C65.408 122.952 63.9031 123.573 62.335 123.571H9.88403C8.31608 123.572 6.81147 122.952 5.69995 121.846C4.58843 120.74 3.96072 119.239 3.9541 117.671V9.84302C3.9594 8.27412 4.58661 6.77132 5.69824 5.66419C6.80987 4.55706 8.31513 3.93595 9.88403 3.93702H62.3362C63.9053 3.93568 65.4106 4.55666 66.5225 5.66382C67.6343 6.77099 68.2618 8.27395 68.2671 9.84302V70.096C68.2671 70.6203 68.4754 71.1232 68.8462 71.494C69.217 71.8647 69.7198 72.073 70.2441 72.073C70.7685 72.073 71.2713 71.8647 71.6421 71.494C72.0128 71.1232 72.2212 70.6203 72.2212 70.096V36.487C72.9644 36.3372 73.633 35.9354 74.114 35.3494C74.5951 34.7634 74.859 34.0292 74.8611 33.271V24.659C74.8591 23.9009 74.5954 23.1668 74.1143 22.5809C73.6332 21.9951 72.9644 21.5934 72.2212 21.444V9.84302C72.2127 7.22782 71.1671 4.72274 69.314 2.87745C67.4608 1.03215 64.9514 -0.00265692 62.3362 5.12336e-06H9.88403C7.26892 -0.00265625 4.7595 1.03219 2.90649 2.87751C1.05349 4.72283 0.00820896 7.22792 0 9.84302V117.671C0.00847325 120.286 1.054 122.791 2.90698 124.636C4.75996 126.481 7.26909 127.516 9.88403 127.513H62.3362C64.7307 127.514 67.044 126.645 68.8464 125.069C70.6489 123.492 71.8177 121.315 72.136 118.942C72.1912 118.759 72.2192 118.57 72.219 118.379V117.671C72.2174 117.148 72.0086 116.647 71.6382 116.278C71.2678 115.909 70.7661 115.702 70.2432 115.702ZM45.9941 10.03C46.2564 10.0359 46.517 9.9894 46.761 9.89313C47.005 9.79686 47.2275 9.6528 47.415 9.46943C47.6026 9.28605 47.7515 9.06703 47.8533 8.82526C47.955 8.58349 48.0076 8.32384 48.0076 8.06153C48.0076 7.79922 47.955 7.53957 47.8533 7.2978C47.7515 7.05603 47.6026 6.83701 47.415 6.65363C47.2275 6.47025 47.005 6.32619 46.761 6.22992C46.517 6.13365 46.2564 6.08711 45.9941 6.09302H26.2261C25.9638 6.08711 25.703 6.13365 25.459 6.22992C25.215 6.32619 24.9927 6.47025 24.8052 6.65363C24.6176 6.83701 24.4687 7.05603 24.3669 7.2978C24.2652 7.53957 24.2126 7.79922 24.2126 8.06153C24.2126 8.32384 24.2652 8.58349 24.3669 8.82526C24.4687 9.06703 24.6176 9.28605 24.8052 9.46943C24.9927 9.6528 25.215 9.79686 25.459 9.89313C25.703 9.9894 25.9638 10.0359 26.2261 10.03H45.9941ZM30.614 116.769C30.6083 117.858 30.926 118.924 31.5269 119.833C32.1277 120.741 32.9848 121.45 33.9893 121.871C34.9937 122.292 36.1004 122.405 37.1692 122.196C38.238 121.987 39.2208 121.465 39.9929 120.697C40.765 119.929 41.2915 118.949 41.5061 117.882C41.7207 116.814 41.6137 115.707 41.1982 114.7C40.7828 113.693 40.0777 112.833 39.1726 112.227C38.2675 111.621 37.203 111.298 36.114 111.298C34.6596 111.296 33.2638 111.87 32.2327 112.896C31.2015 113.922 30.6193 115.315 30.614 116.769ZM37.6521 116.769C37.6537 117.074 37.5645 117.373 37.396 117.628C37.2275 117.883 36.9874 118.081 36.7058 118.199C36.4242 118.317 36.1139 118.349 35.8142 118.29C35.5146 118.232 35.2392 118.086 35.0227 117.87C34.8063 117.655 34.6585 117.38 34.5984 117.081C34.5382 116.781 34.5683 116.471 34.6848 116.189C34.8013 115.907 34.9989 115.665 35.2527 115.495C35.5064 115.326 35.8048 115.235 36.1101 115.235C36.5178 115.234 36.9092 115.396 37.1982 115.683C37.4873 115.971 37.6505 116.361 37.6521 116.769ZM59.7332 71.943C60.3101 71.9438 60.8636 71.7155 61.2722 71.3082C61.6808 70.9009 61.911 70.3479 61.9121 69.771V25.706C61.9121 22.041 58.376 18.825 54.345 18.825H18.6011C16.5989 18.8234 14.6778 19.616 13.2593 21.0289C11.8407 22.4419 11.0405 24.3598 11.0342 26.362V99.843C11.0405 101.845 11.8407 103.763 13.2593 105.176C14.6779 106.589 16.599 107.381 18.6011 107.379H49.7842C50.3602 107.379 50.9125 107.15 51.3198 106.743C51.7272 106.336 51.9561 105.783 51.9561 105.207C51.9561 104.631 51.7272 104.078 51.3198 103.671C50.9125 103.264 50.3602 103.035 49.7842 103.035H18.5981C18.1778 103.036 17.7615 102.954 17.3728 102.794C16.9841 102.634 16.6308 102.399 16.333 102.102C16.0352 101.806 15.7986 101.453 15.637 101.065C15.4754 100.677 15.3919 100.261 15.3911 99.841V26.362C15.3919 25.9417 15.4754 25.5256 15.637 25.1376C15.7986 24.7496 16.0352 24.3973 16.333 24.1007C16.6308 23.804 16.9841 23.569 17.3728 23.409C17.7615 23.249 18.1778 23.1671 18.5981 23.168H54.342C55.0904 23.1441 55.823 23.3858 56.4102 23.8503C56.9973 24.3149 57.4012 24.9722 57.55 25.706V69.772C57.5504 70.058 57.6073 70.3411 57.7173 70.6051C57.8273 70.8691 57.9884 71.1088 58.1912 71.3105C58.394 71.5122 58.6346 71.6719 58.8992 71.7804C59.1638 71.8889 59.4472 71.9442 59.7332 71.943Z" fill="#3D58A6"/>
</svg>
