<svg width="100" height="131" viewBox="0 0 100 131" fill="none" xmlns="http://www.w3.org/2000/svg">
<path d="M37.1147 129.237C37.4719 129.691 37.9276 130.058 38.4473 130.31C38.9669 130.562 39.5371 130.693 40.1147 130.693H87.8807C88.6436 130.692 89.3889 130.463 90.0206 130.036C90.6524 129.608 91.1418 129.001 91.4258 128.293C91.4988 128.111 92.4257 125.661 92.7727 124.68C93.7667 121.887 94.7617 118.847 95.6897 115.658C97.1323 110.797 98.2695 105.851 99.0947 100.848C100.711 90.6481 100.261 82.4851 96.8787 76.8901C93.3627 71.0711 87.0837 66.8821 78.8907 63.9161C74.5706 62.3831 70.1223 61.2385 65.5987 60.496C64.0217 60.228 63.0417 60.1121 63.0417 60.1121V25.1221C63.0441 22.0776 61.8382 19.1566 59.6888 17.0004C57.5394 14.8443 54.6222 13.6292 51.5778 13.6221H49.6667C46.6204 13.6316 43.7023 14.8495 41.553 17.0084C39.4037 19.1672 38.1988 22.0907 38.2028 25.1371L38.2097 85.774L25.4838 74.5891C17.3108 67.4061 5.93969 69.314 0.559688 78.772C0.153675 79.4457 -0.0390996 80.2265 0.00658719 81.0117C0.052274 81.797 0.334269 82.55 0.815669 83.1721L37.1147 129.237ZM9.78771 79.566C12.9077 77.166 17.0187 77.355 20.4497 80.366L39.5067 97.1151C40.0598 97.5999 40.7411 97.9147 41.4687 98.0217C42.1964 98.1288 42.9394 98.0235 43.6086 97.7186C44.2779 97.4136 44.8449 96.9219 45.2416 96.3026C45.6382 95.6832 45.8477 94.9625 45.8447 94.2271V25.1371C45.8442 24.122 46.2461 23.148 46.9623 22.4286C47.6785 21.7092 48.6507 21.303 49.6658 21.2991H51.5768C52.5891 21.3014 53.5593 21.7045 54.2753 22.4201C54.9913 23.1357 55.3948 24.1057 55.3977 25.118V63.5181C55.3957 64.4858 55.7601 65.4184 56.4175 66.1285C57.0749 66.8386 57.9768 67.2736 58.9418 67.3461C59.1788 67.3641 59.6657 67.4091 60.3647 67.4891C61.5557 67.6251 62.8877 67.8121 64.3247 68.0551C68.3985 68.7229 72.4049 69.7513 76.2967 71.1281C82.9967 73.5551 87.9038 76.828 90.3428 80.863C92.5348 84.491 92.8987 91.0801 91.5427 99.6331C90.7671 104.315 89.7004 108.944 88.3487 113.493C87.4657 116.529 86.5188 119.427 85.5718 122.085C85.4489 122.387 85.345 122.697 85.2607 123.012H42.0148L8.59277 80.6851C8.9562 80.2779 9.35466 79.9034 9.78369 79.566H9.78771Z" fill="#3D58A6"/>
<path d="M75.6816 20.8511C74.8138 16.5634 72.8786 12.5638 70.055 9.22242C67.2315 5.88103 63.6108 3.30576 59.5279 1.73487C55.4451 0.16397 51.0321 -0.351772 46.697 0.235295C42.362 0.822361 38.2449 2.49329 34.7269 5.09351C31.2089 7.69373 28.4037 11.1393 26.5705 15.1113C24.7374 19.0833 23.9355 23.4534 24.2394 27.8175C24.5432 32.1816 25.9428 36.3985 28.3087 40.0782C30.6746 43.7579 33.9303 46.7814 37.7746 48.8691C38.2179 49.1189 38.7063 49.2782 39.2115 49.3377C39.7168 49.3973 40.2289 49.3559 40.718 49.2159C41.2071 49.076 41.6636 48.8403 42.0609 48.5225C42.4582 48.2048 42.7885 47.8112 43.0325 47.3647C43.2765 46.9183 43.4293 46.4279 43.4823 45.9219C43.5352 45.4159 43.4871 44.9044 43.3408 44.4172C43.1945 43.9299 42.9529 43.4766 42.63 43.0834C42.3071 42.6903 41.9093 42.3652 41.4597 42.1271C37.8897 40.1883 35.0658 37.1173 33.4327 33.3975C31.7997 29.6777 31.4502 25.5205 32.4392 21.5803C33.4282 17.64 35.6996 14.1406 38.8957 11.6329C42.0919 9.12529 46.0312 7.75183 50.0936 7.72883C54.156 7.70582 58.1107 9.03458 61.3351 11.5059C64.5594 13.9771 66.8702 17.4506 67.9038 21.3794C68.9374 25.3082 68.635 29.4691 67.0442 33.2072C65.4534 36.9452 62.6645 40.048 59.1167 42.027C58.6744 42.2728 58.2849 42.6035 57.9707 43.0001C57.6565 43.3968 57.4238 43.8516 57.2859 44.3384C57.148 44.8253 57.1076 45.3346 57.1671 45.8371C57.2266 46.3396 57.3847 46.8254 57.6324 47.2666C57.8802 47.7078 58.2126 48.0957 58.6107 48.4081C59.0088 48.7205 59.4647 48.9512 59.9521 49.0869C60.4396 49.2226 60.9491 49.2606 61.4513 49.1989C61.9535 49.1371 62.4386 48.9768 62.8787 48.7271C66.5579 46.6875 69.6849 43.7823 71.989 40.2626C74.2931 36.743 75.7051 32.715 76.1027 28.527H87.4197V32.3741C87.4197 33.4101 88.1196 33.7831 88.9936 33.1641L99.3417 25.8091C99.5412 25.6981 99.7075 25.5358 99.8232 25.3389C99.939 25.1421 100 24.9179 100 24.6896C100 24.4612 99.939 24.237 99.8232 24.0402C99.7075 23.8433 99.5412 23.6811 99.3417 23.5701L88.9977 16.2131C88.1117 15.5831 87.4237 15.949 87.4237 17.004V20.8511H75.6816Z" fill="#3D58A6"/>
</svg>
