<svg width="26" height="30" viewBox="0 0 26 30" fill="none" xmlns="http://www.w3.org/2000/svg">
<path d="M16.604 24.361V20.821C16.604 20.069 16.3857 19.693 15.949 19.693C15.8071 19.7001 15.6681 19.7358 15.5403 19.7978C15.4125 19.8598 15.2984 19.947 15.205 20.054V25.107C15.2986 25.2138 15.4127 25.3007 15.5405 25.3625C15.6683 25.4244 15.8072 25.4599 15.949 25.467C16.385 25.467 16.6033 25.1003 16.604 24.367V24.361ZM20.754 21.609H22.243V20.842C22.243 20.0747 21.9947 19.6913 21.498 19.692C21.0013 19.6927 20.7534 20.076 20.754 20.842V21.609ZM7.87401 15.609V17.188H6.07401V26.73H4.39901V17.188H2.64001V15.609H7.87401ZM12.408 18.451V26.73H10.899V25.83C10.7025 26.1122 10.4477 26.3488 10.1518 26.5239C9.85596 26.699 9.5259 26.8086 9.18401 26.845C8.97719 26.8678 8.76897 26.817 8.59582 26.7017C8.42267 26.5863 8.29565 26.4137 8.23701 26.2141C8.12732 25.8179 8.08174 25.4066 8.10201 24.996V18.451H9.59002V24.542C9.58067 24.7376 9.58836 24.9337 9.61301 25.128C9.62801 25.354 9.74102 25.466 9.95102 25.466C10.2523 25.466 10.5683 25.2327 10.899 24.766V18.451H12.408ZM18.092 20.951V24.244C18.1176 24.7977 18.0644 25.3522 17.934 25.891C17.8838 26.1671 17.7349 26.4154 17.515 26.5897C17.2951 26.764 17.0192 26.8523 16.739 26.838C16.43 26.8105 16.1312 26.7131 15.8654 26.553C15.5997 26.3929 15.3738 26.1743 15.205 25.914V26.726H13.694V15.609H15.205V19.241C15.374 18.9829 15.6003 18.7673 15.8665 18.6111C16.1326 18.455 16.4312 18.3625 16.739 18.341C17.0192 18.3268 17.2951 18.415 17.515 18.5893C17.7349 18.7636 17.8838 19.012 17.934 19.288C18.0648 19.8335 18.1179 20.3947 18.092 20.955V20.951ZM23.754 23.861V24.061C23.7598 24.385 23.7448 24.709 23.709 25.031C23.6667 25.3531 23.5507 25.6611 23.37 25.931C23.1739 26.2244 22.9048 26.4616 22.5892 26.6194C22.2736 26.7772 21.9223 26.8501 21.57 26.831C21.2188 26.8472 20.8689 26.7777 20.5506 26.6284C20.2322 26.4791 19.9551 26.2545 19.743 25.974C19.3801 25.3953 19.2138 24.7148 19.269 24.034V21.125C19.216 20.4473 19.3735 19.7698 19.72 19.185C19.9286 18.9063 20.202 18.6826 20.5165 18.5333C20.831 18.3839 21.1772 18.3135 21.525 18.328C21.8668 18.3104 22.2074 18.3798 22.515 18.5297C22.8226 18.6796 23.0872 18.905 23.284 19.185C23.643 19.7654 23.8089 20.4445 23.758 21.125V22.8391H20.758V24.321C20.758 25.0877 21.0137 25.471 21.525 25.471C21.6912 25.478 21.8537 25.4212 21.9794 25.3123C22.105 25.2033 22.1843 25.0505 22.201 24.885C22.201 24.87 22.201 24.8171 22.213 24.7271C22.225 24.6371 22.224 24.513 22.224 24.355V23.87L23.754 23.861ZM13.581 5.27405V8.79303C13.581 9.56036 13.3403 9.94403 12.859 9.94403C12.3777 9.94403 12.137 9.56036 12.137 8.79303V5.27405C12.137 4.49271 12.3777 4.10205 12.859 4.10205C13.3403 4.10205 13.581 4.49402 13.581 5.27802V5.27405ZM25.599 21.361C25.6563 19.3968 25.5126 17.4319 25.17 15.497C25.0316 14.8551 24.6917 14.2743 24.2 13.8391C23.7251 13.4051 23.1252 13.1324 22.486 13.06C19.3956 12.7924 16.2937 12.6796 13.192 12.722C10.0983 12.6799 7.00443 12.7926 3.92201 13.06C3.27796 13.1276 2.67279 13.4008 2.19601 13.8391C1.71046 14.2774 1.37528 14.8574 1.23801 15.497C0.883287 17.4306 0.7318 19.3959 0.786015 21.361C0.727391 23.3265 0.878913 25.2927 1.23801 27.226C1.38115 27.8599 1.71557 28.4345 2.19601 28.872C2.66192 29.3129 3.25863 29.5902 3.89602 29.662C5.95602 29.888 9.05368 30.0007 13.189 30C17.3243 29.9993 20.4223 29.8867 22.483 29.662C23.1204 29.5902 23.7171 29.3129 24.183 28.872C24.6635 28.4345 24.9979 27.8599 25.141 27.226C25.5021 25.2929 25.6557 23.3268 25.599 21.361ZM8.56801 6.677L10.599 0H8.90701L7.75602 4.40002L6.56101 0H4.80201L5.34301 1.55701L5.86201 3.11304C6.27877 4.27919 6.62506 5.4693 6.89901 6.677V11.211H8.56801V6.677ZM15.087 8.50403V5.57202C15.1349 4.88462 14.9698 4.19915 14.614 3.60901C14.4123 3.33397 14.1466 3.11221 13.84 2.96289C13.5333 2.81357 13.1949 2.7412 12.854 2.75201C12.5123 2.73462 12.1717 2.80411 11.8641 2.95398C11.5565 3.10384 11.2919 3.32919 11.095 3.60901C10.7384 4.19883 10.5729 4.88447 10.621 5.57202V8.50403C10.5728 9.19127 10.7384 9.87656 11.095 10.466C11.2917 10.7461 11.5563 10.9717 11.8639 11.1218C12.1715 11.2718 12.5122 11.3414 12.854 11.324C13.195 11.3347 13.5335 11.2622 13.8401 11.1127C14.1468 10.9632 14.4124 10.7412 14.614 10.466C14.9794 9.88009 15.147 9.19235 15.092 8.50403H15.087ZM19.17 11.211H20.681V2.86499H19.17V9.24805C18.8367 9.71471 18.521 9.948 18.223 9.948C17.997 9.948 17.877 9.82704 17.862 9.58704C17.8374 9.3924 17.8297 9.19596 17.839 9V2.86499H16.328V9.474C16.3113 9.89207 16.3568 10.3103 16.463 10.715C16.5364 10.9082 16.6709 11.0722 16.8459 11.1821C17.021 11.292 17.2271 11.3419 17.433 11.324C17.7767 11.283 18.1082 11.1717 18.407 10.9971C18.7058 10.8225 18.9655 10.5883 19.17 10.309V11.209V11.211Z" fill="#3D58A6"/>
</svg>
