<svg width="101" height="31" viewBox="0 0 101 31" fill="none" xmlns="http://www.w3.org/2000/svg">
<path d="M7.44036 24.762C7.25633 24.7389 7.08101 24.6702 6.93036 24.562L1.12136 18.962C0.892043 18.7853 0.686657 18.5796 0.510363 18.35C0.367517 18.1984 0.247279 18.0269 0.153363 17.841C0.0476395 17.6331 -0.00492616 17.4022 0.000363123 17.169V16.354C-0.00344282 16.1241 0.0490864 15.8969 0.153363 15.692C0.306363 15.492 0.408363 15.284 0.510363 15.182L6.87936 8.813C7.02896 8.70946 7.20748 8.6559 7.38936 8.66C7.48361 8.65469 7.57788 8.66982 7.66573 8.70434C7.75359 8.73886 7.83294 8.79195 7.89836 8.86C8.01606 9.00529 8.08592 9.18343 8.09836 9.37V10.542C8.09836 10.642 8.04736 10.695 8.04736 10.742C8.03444 10.8171 7.99965 10.8866 7.94736 10.942C7.92163 10.9976 7.88795 11.0491 7.84736 11.095C7.84736 11.146 7.79636 11.195 7.69536 11.295L7.54236 11.448C7.46097 11.4981 7.39247 11.5666 7.34236 11.648C7.24236 11.748 7.14236 11.801 7.14236 11.848L2.65036 16.507C2.55036 16.607 2.45036 16.707 2.45036 16.813C2.45425 16.877 2.47474 16.9388 2.50981 16.9925C2.54488 17.0462 2.59332 17.0898 2.65036 17.119L7.13436 21.552C7.19123 21.6147 7.259 21.6665 7.33436 21.705C7.43436 21.805 7.48736 21.857 7.53436 21.857L7.68736 22.01L7.83936 22.163C7.89036 22.214 7.89036 22.263 7.93936 22.316C7.98836 22.369 7.99037 22.469 8.03936 22.516C8.03936 22.567 8.09036 22.669 8.09036 22.716V23.997C8.09581 24.0913 8.08074 24.1856 8.04622 24.2734C8.01169 24.3613 7.95851 24.4407 7.89036 24.506C7.84294 24.5831 7.77684 24.6469 7.69818 24.6917C7.61952 24.7364 7.53085 24.7606 7.44036 24.762Z" fill="#EE4036"/>
<path d="M13.0454 30.571C12.9454 30.571 12.8454 30.418 12.8454 30.163V30.011L17.5334 0.611C17.6334 0.204 17.7334 0 17.8904 0H20.6424C20.7944 0 20.8424 0.152999 20.8424 0.407999V0.560999L16.1544 29.961C16.0544 30.368 15.9544 30.572 15.7984 30.572L13.0454 30.571Z" fill="#EE4036"/>
<path d="M25.2754 27.157C25.2002 27.1639 25.1245 27.1538 25.0538 27.1273C24.9832 27.1008 24.9194 27.0586 24.8674 27.004C24.7674 26.904 24.7674 26.698 24.7674 26.393V4.226C24.7506 4.01724 24.7849 3.80753 24.8674 3.615C24.9194 3.56036 24.9832 3.51822 25.0538 3.49172C25.1245 3.46522 25.2002 3.45506 25.2754 3.462H28.1754C28.2505 3.45506 28.3262 3.46522 28.3969 3.49172C28.4676 3.51822 28.5313 3.56036 28.5834 3.615C28.6834 3.715 28.6834 3.921 28.6834 4.226V12.991C28.67 13.0793 28.6881 13.1696 28.7344 13.246C28.7854 13.346 28.8344 13.346 28.8874 13.346H34.8494C34.9004 13.346 34.9494 13.295 35.0014 13.246C35.0524 13.146 35.1014 13.093 35.1014 12.991V4.226C35.0757 4.01046 35.1302 3.79301 35.2544 3.615C35.3064 3.56036 35.3702 3.51822 35.4408 3.49172C35.5115 3.46522 35.5872 3.45506 35.6624 3.462H38.6174C38.685 3.45508 38.7532 3.46549 38.8157 3.49226C38.8781 3.51903 38.9327 3.56127 38.9744 3.615C39.0744 3.715 39.0744 3.921 39.0744 4.226V26.397C39.0911 26.6058 39.0568 26.8155 38.9744 27.008C38.9295 27.0578 38.8743 27.0973 38.8127 27.1237C38.751 27.1502 38.6844 27.1629 38.6174 27.161H35.6704C35.582 27.1743 35.4918 27.1563 35.4154 27.11L35.2154 26.91C35.1476 26.749 35.1135 26.5757 35.1154 26.401V16.303C35.1154 16.048 35.0644 15.947 34.9154 15.947H28.8934C28.7404 15.947 28.6934 16.047 28.6934 16.303V26.397C28.719 26.6125 28.6646 26.83 28.5404 27.008C28.4883 27.0626 28.4246 27.1048 28.3539 27.1313C28.2832 27.1578 28.2075 27.1679 28.1324 27.161L25.2754 27.157Z" fill="#EE4036"/>
<path d="M46.4734 27.157C46.4058 27.1639 46.3375 27.1535 46.275 27.1267C46.2126 27.1 46.158 27.0577 46.1164 27.004C45.9922 26.826 45.9377 26.6085 45.9634 26.393V6.519C45.9634 6.265 45.9124 6.112 45.7634 6.112H41.9934C41.9427 6.112 41.8917 6.061 41.8404 5.959C41.792 5.81113 41.7746 5.65488 41.7894 5.5V4.175C41.7698 3.98266 41.8045 3.7887 41.8894 3.615C41.9413 3.5605 42.0049 3.51844 42.0754 3.49194C42.1458 3.46545 42.2214 3.45522 42.2964 3.462H53.5564C53.6238 3.45525 53.6919 3.46575 53.7541 3.49252C53.8164 3.51928 53.8708 3.56143 53.9124 3.615C54.0124 3.715 54.0124 3.921 54.0124 4.175V5.497C54.0273 5.673 53.9927 5.84967 53.9124 6.007C53.7913 6.08401 53.6483 6.11914 53.5054 6.107H50.0914C49.9384 6.107 49.8914 6.26 49.8914 6.514V26.397C49.9151 26.6285 49.8613 26.8614 49.7384 27.059C49.6863 27.1136 49.6226 27.1558 49.5519 27.1823C49.4812 27.2088 49.4055 27.2189 49.3304 27.212H46.4734V27.157Z" fill="#EE4036"/>
<path d="M56.9194 27.157C56.6134 27.157 56.4604 26.902 56.4604 26.342V26.242L57.3774 4.33C57.3774 3.719 57.5774 3.413 57.8874 3.413H61.0464C61.2282 3.4089 61.4068 3.46246 61.5564 3.566C61.6459 3.64196 61.7192 3.73524 61.7718 3.84024C61.8244 3.94524 61.8552 4.05979 61.8624 4.177L65.2254 19.77C65.2311 19.808 65.249 19.843 65.2764 19.87H65.3764C65.4274 19.87 65.4274 19.819 65.4274 19.77L68.7924 4.277C68.8924 3.768 69.1494 3.462 69.5564 3.462H72.7664C73.0724 3.462 73.2254 3.819 73.2254 4.379L74.1424 26.291V26.391C74.1424 26.9 73.9894 27.206 73.6334 27.206H71.4424C71.1364 27.206 70.9324 26.9 70.9324 26.34L70.3214 9.32C70.3214 9.269 70.3214 9.22 70.2704 9.22C70.2194 9.22 70.2194 9.22 70.1704 9.271L66.5504 26.397C66.4504 26.906 66.1934 27.212 65.8874 27.212H64.6134C64.3084 27.212 64.0534 26.957 63.9514 26.397L60.4354 9.377C60.4354 9.326 60.3844 9.277 60.3354 9.326V9.426L59.6734 26.293C59.6734 26.904 59.5204 27.159 59.2144 27.159L56.9194 27.157Z" fill="#EE4036"/>
<path d="M78.9324 27.157C78.8649 27.1643 78.7966 27.1541 78.7343 27.1273C78.6719 27.1005 78.6175 27.058 78.5764 27.004C78.4764 26.904 78.4764 26.698 78.4764 26.393V4.226C78.4596 4.01724 78.4939 3.80753 78.5764 3.615C78.621 3.56508 78.6759 3.52552 78.7374 3.49909C78.7989 3.47266 78.8655 3.46 78.9324 3.462H81.8884C81.9558 3.45525 82.0239 3.46575 82.0861 3.49251C82.1484 3.51928 82.2029 3.56142 82.2444 3.615C82.3444 3.715 82.3444 3.921 82.3444 4.226V24.202C82.3444 24.456 82.4444 24.558 82.5994 24.558H87.7994C87.9257 24.5524 88.0505 24.5874 88.1554 24.658C88.2554 24.758 88.2554 24.913 88.2554 25.168V26.497C88.2618 26.6886 88.2277 26.8794 88.1554 27.057C88.1073 27.0993 88.0504 27.1302 87.9888 27.1475C87.9271 27.1648 87.8624 27.1681 87.7994 27.157H78.9324Z" fill="#EE4036"/>
<path d="M92.8434 24.762C92.7562 24.7718 92.668 24.7584 92.5876 24.7233C92.5072 24.6882 92.4374 24.6326 92.3854 24.562C92.2679 24.417 92.198 24.2392 92.1854 24.053V22.928C92.1788 22.8574 92.1968 22.7868 92.2364 22.728C92.2364 22.677 92.2874 22.628 92.2874 22.575C92.3067 22.5549 92.3214 22.5308 92.3302 22.5043C92.339 22.4778 92.3418 22.4497 92.3384 22.422C92.3384 22.371 92.3894 22.322 92.4384 22.269C92.4874 22.216 92.5384 22.169 92.5384 22.116C92.5384 22.063 92.5894 22.065 92.6384 21.963L92.7914 21.811C92.8414 21.811 92.8914 21.76 92.9434 21.658C93.0454 21.6067 93.0964 21.5557 93.0964 21.505L97.5804 16.919C97.625 16.8808 97.6615 16.834 97.6877 16.7814C97.714 16.7289 97.7295 16.6716 97.7334 16.613C97.7294 16.549 97.7088 16.4872 97.6738 16.4336C97.6387 16.3799 97.5903 16.3363 97.5334 16.307L93.1004 11.87C93.0234 11.7937 92.9378 11.7266 92.8454 11.67C92.7454 11.57 92.6454 11.517 92.6454 11.47L92.4924 11.317C92.3924 11.217 92.3394 11.165 92.3394 11.117C92.3394 11.069 92.2884 11.017 92.2394 10.917C92.1904 10.817 92.1884 10.764 92.1394 10.662V9.271C92.1357 9.08935 92.2029 8.91341 92.3266 8.78036C92.4503 8.6473 92.6209 8.56757 92.8024 8.558C92.9898 8.56478 93.1694 8.63533 93.3114 8.758L99.1204 14.414L99.7324 15.025C99.8554 15.1616 99.9567 15.3164 100.032 15.484C100.131 15.6908 100.183 15.9168 100.185 16.146V17.216C100.185 17.267 100.134 17.369 100.134 17.416C100.099 17.4768 100.082 17.5459 100.083 17.616C100.083 17.667 100.032 17.716 99.9834 17.816C99.9574 17.8715 99.9237 17.923 99.8834 17.969C99.8422 18.0426 99.7907 18.11 99.7304 18.169L99.5774 18.321L99.3774 18.521C99.2774 18.621 99.1774 18.674 99.1774 18.721L93.4004 24.507C93.2517 24.6567 93.0538 24.7473 92.8434 24.762Z" fill="#EE4036"/>
</svg>
